PathFileType	4	(X/Y/Z)	T1_P2_Vision_NoMovement_0_0-733.trc
DataRate	CameraRate	NumFrames	NumMarkers	Units	OrigDataRate	OrigDataStartFrame	OrigNumFrames
60	60	7	27	m	60	183	733
Frame#	Time	RHip			RKnee			RAnkle			RBigToe			RSmallToe			RHeel			LHip			LKnee			LAnkle			LBigToe			LSmallToe			LHeel			Neck			Head			Nose			RShoulder			RElbow			RWrist			RThumb			RIndex			RPinky			LShoulder			LElbow			LWrist			LThumb			LIndex			LPinky		
		X1	Y1	Z1	X2	Y2	Z2	X3	Y3	Z3	X4	Y4	Z4	X5	Y5	Z5	X6	Y6	Z6	X7	Y7	Z7	X8	Y8	Z8	X9	Y9	Z9	X10	Y10	Z10	X11	Y11	Z11	X12	Y12	Z12	X13	Y13	Z13	X14	Y14	Z14	X15	Y15	Z15	X16	Y16	Z16	X17	Y17	Z17	X18	Y18	Z18	X19	Y19	Z19	X20	Y20	Z20	X21	Y21	Z21	X22	Y22	Z22	X23	Y23	Z23	X24	Y24	Z24	X25	Y25	Z25	X26	Y26	Z26	X27	Y27	Z27
184	3.066666666666667	453.7506450933197	3713.736826120807	637.8245737768578	849.9905000834758	3772.5012181807315	651.4821015277842	1219.418787562867	3742.462810500311	667.92941347184	1303.1798164727334	3662.8555784358787	664.8477852131813	1294.2669220678597	3713.144944837647	612.3887556157871	1283.8452781038413	3819.736522997745	742.2848539394765	463.74806506471305	3621.700067506142	845.7937187540316	845.0994433821817	3640.3316721386777	853.1815286623442	1226.7232998507718	3675.313351530677	854.6728382511279	1301.9639452453155	3547.329504317654	798.241969085653	1283.2632762707954	3537.8647755471025	844.6441623723147	1257.9630636898987	3706.56215786778	857.3876528967627	-126.11280183282928	3610.9027397973114	737.7225103488994	-393.4890622406624	3581.2755500791422	715.4482196290691	-245.81818606442764	3514.0202552181627	695.9071358569624	-48.11247953867434	3660.0361050319384	576.8629810697455	197.23334393980997	3699.338604819222	527.8786733043828	353.1325501399659	3541.744262396665	617.6750928573462	419.8928951242246	3499.1472268174216	686.585310387342	453.0887510971669	3502.4383945146283	699.2537131451589	471.7160918620257	3446.590165454451	634.7081299763363	-35.118774294611455	3549.6234704870976	884.6218026847628	232.03990010026158	3498.0246008592035	907.4644345707522	365.2279822053953	3478.3020600326595	719.2762363365304	410.4819284620186	3483.850956540202	617.5968513153657	454.64223402595275	3498.8152446437966	618.9372357346853	467.6584170269999	3445.625310330977	651.3383273198272
185	3.0833333333333335	453.7374800657463	3713.680739796198	637.8362906416797	850.1436583630029	3772.7202503174044	651.3921930073761	1211.9054530104668	3725.290145258687	654.0040442598565	1302.912223803076	3662.4585928418655	664.6278372538392	1293.9581894694545	3712.58544596029	612.0513354836042	1283.859204034947	3819.816133433047	742.2450036367161	459.72381056283007	3626.603338273605	848.7261921228373	845.1449461191755	3640.4541673175686	853.254126144106	1221.6071544859658	3673.098670033844	852.8214467437626	1308.5252484438881	3551.331856687344	799.3502987737853	1283.3289465498233	3537.8503101113283	844.6485364141022	1251.0892079831847	3701.826239655038	855.9114968276202	-126.08973475392999	3610.896508270436	737.6973755022441	-397.8220413364507	3584.905721506721	717.4916549077158	-250.0580176633221	3517.3332365468655	697.7658325414512	-48.043866047364574	3659.883056923009	576.8077137475503	202.37753056096673	3700.8657013330794	528.6091350483402	353.0618106469405	3541.801687342971	617.6152242256771	419.44241862742285	3500.52779182719	681.6267053747713	452.8822530721168	3502.31962513762	699.0528370899957	471.33045241250124	3446.4509203773996	634.5045698417664	-35.11364877933372	3549.575435911302	884.5344331468851	231.94929893276085	3498.1317734321838	907.4775819496222	365.3112487128438	3478.1953802028183	719.222754544793	410.34426471624323	3483.920488906029	617.6113152130087	454.6253376980583	3498.9364247560075	618.9635280036135	466.9807253648595	3445.1296292400957	645.2140636134701
186	3.1	453.7776488841791	3713.714456212505	637.9144657568197	850.3083488061565	3772.8041632513887	651.3817213972383	1211.8882785032854	3724.9578591381983	653.8149782445763	1303.2008322037923	3662.023477196146	664.5560108250767	1296.74464283671	3706.763255915935	608.876691372253	1267.1137622333947	3774.6496923096183	724.8767916319554	463.6437526817883	3621.864283571771	846.0315577527196	845.066051153002	3640.1216971997983	853.1872505518934	1228.575694637366	3688.2705164852614	866.2604749133018	1308.6670383904918	3551.2617736957036	799.3610732918654	1283.8176243391902	3536.010678815316	849.8902617409747	1257.9753510695339	3706.626475745468	857.5022823095624	-126.3014187711909	3613.285888853704	733.9908086252876	-393.48965405360156	3581.7782524197005	715.7503548018742	-249.77683709044894	3499.4651737220547	687.5531313036516	-48.087326630043165	3659.738075323784	576.6879174943226	202.35034927912335	3700.694298254861	528.5412735544364	353.1361703884824	3541.4672467230316	617.4911125609701	425.15160503174786	3505.617853188075	683.6668272123052	449.8638790799312	3506.4624593295116	701.5725578457299	471.7674465187352	3446.55517703397	634.656274823006	-35.12869036078294	3549.489626082117	884.5173102216078	232.03862592171885	3498.006897814825	907.440211327604	362.5165091057607	3464.1078644444638	706.6071665332543	410.45720967629194	3484.393438702607	617.7172438941084	454.85586139437765	3499.2167721079927	619.0372551190109	470.58081689620957	3446.30808246122	646.2801523487366
187	3.1166666666666667	453.80091131748344	3713.574317266614	637.871638045852	850.310507094871	3772.776357769142	651.3699217863774	1211.763632279179	3724.963060212012	653.9328963036588	1298.3142586544577	3660.550948951625	662.9668718006894	1296.6915399007935	3707.3627846155723	609.3630471565426	1266.956825597266	3774.49453441559	724.8752367310258	463.6453422911222	3621.813419904987	845.9923398201165	845.1137522370492	3640.2815515391712	853.2789977680462	1228.6398204897457	3688.4088836936753	866.3354430864732	1307.9219221246428	3544.4735493051217	805.2840946722322	1283.5849703028175	3537.6747424688047	844.8135479045072	1257.9331163464371	3706.652019967377	857.4874641680079	-126.27274656965797	3629.3724556224774	748.3912881541503	-397.9124516795134	3585.1539104366534	717.6776954153582	-250.26818382370692	3517.1735069313313	697.7065126053476	-48.113730549001765	3659.6340473647324	576.5959119156204	202.3900409164755	3700.9335865845464	528.6061029006097	353.1132001366842	3541.5721571753847	617.4897254252588	419.6788254170035	3501.5065393231903	682.434942127697	449.8412715281354	3506.5606717067376	701.7250521992881	471.7636985887747	3446.731421460914	634.6878982035088	-35.10826783015895	3549.344684790048	884.3983059408146	229.70656735033577	3483.5400154377044	893.3963405189484	365.30768752397694	3478.233514919216	719.2761152461422	415.2087440502037	3486.185083144289	618.8128324540413	454.78997380704976	3499.3832245720564	619.1278052058219	467.05638808092954	3445.1179702027102	645.3333996868607
188	3.1333333333333333	453.69338185091846	3713.538125886479	637.8220724780787	850.1030719130881	3772.6637845648825	651.2802571780242	1211.9689044931351	3725.043888769747	653.8637478666108	1290.7817573886557	3644.1967062677195	649.8805262655305	1296.6170860200737	3706.6383522952983	608.9462948969017	1282.3817702490783	3802.0776821687105	737.151885322413	459.5704157440176	3626.731048761763	848.8279313632482	845.0796729548023	3640.3793356563865	853.3629411224886	1235.305287094093	3692.592763220501	867.7418637746044	1308.5675756347277	3551.126342359307	799.4145586455377	1283.9207468514137	3536.4858573598854	849.852675783188	1257.9853521674681	3706.23995708816	857.2586424827382	-126.31192247418518	3629.490898906437	748.4684273742339	-397.8310667885292	3585.2026974297514	717.7012015913075	-249.9342270733885	3501.638344928732	683.618319033268	-48.12810402027089	3659.500095057362	576.5653481356427	202.3573205990247	3700.89215166024	528.6714237341962	358.5225607051615	3545.4619825846953	618.9631644631804	425.04692792783925	3506.1970243738742	683.8067026543197	449.86533786311935	3506.569795839546	701.570397322112	471.8225608188253	3446.4705098491695	634.5063225934159	-35.15793763912253	3549.323387283928	884.4102598160615	229.73717420331113	3483.438965037865	893.330953754985	365.32092717198543	3478.088564028718	719.2539569825337	413.2193681325061	3504.4820052970003	623.4025867369844	457.84963855171577	3520.2638931239826	625.2487041332578	467.6417847668501	3445.9880891081834	651.567609022073
189	3.15	453.66952971137357	3713.5424869493622	637.8506594365891	844.5323122894864	3770.639316605439	649.9115545039541	1206.2285709827938	3722.813456231468	652.136080976087	1290.6977740932437	3643.9198168095522	649.6445418505263	1289.0614288473914	3685.2935883740683	603.4523710181738	1281.391933954115	3797.61905321389	740.9808082429497	459.6463234928642	3626.45355621742	848.723950521102	839.7769661328105	3638.463115349806	851.8136075006435	1228.3939425762276	3677.603618516568	854.4236531227958	1294.1741890589506	3526.1336433502133	791.0424816007231	1283.5354383246224	3535.8798515313065	849.6291995108147	1257.9392546921583	3706.3541551492713	857.3109058887504	-126.3429979196532	3627.1435792845377	752.2234991455242	-397.82593160917315	3585.0916802096253	717.661119556785	-249.93654470669915	3501.794084900513	683.5875263130926	-48.106377875974225	3659.4529961133567	576.5268571981717	198.39699265452953	3705.1730513535867	530.7189290936445	352.99464438878726	3541.6563046575657	617.3949534834004	424.588027376302	3506.7835255079544	683.4785650057161	449.7827122932964	3506.8672706357615	701.5442738377019	471.7106773208047	3446.740266290095	634.4961646525983	-35.138856009266405	3549.355640157605	884.3805499436768	229.62944896847372	3483.501869215408	893.3529875998205	362.7358778767255	3458.2323768656033	712.9106719015266	410.1931332314403	3484.46446063945	617.8910671500421	454.5970210406947	3499.5459285145535	619.2788215474105	463.89243241803325	3432.805093353122	633.6600508031836
190	3.1666666666666665	453.74893027045266	3713.4172313314	637.7143745033039	850.0668179072171	3772.4980802761443	651.3224909540088	1206.2623530273152	3723.1389614919926	652.1747380009972	1298.0566102117107	3659.037268844438	662.2616331846657	1289.266945356663	3685.679570491834	603.6308705896506	1283.7154350861558	3819.762468672317	742.1557176751517	463.77826524744563	3621.343335517039	845.7232273314344	848.6229031989026	3634.9333289129318	850.1982407315453	1228.5486539870037	3688.145467270937	866.191207685207	1315.8514476418873	3565.731496645801	812.5749299865589	1283.326269784942	3537.7165823765313	844.6858442735787	1251.379588989201	3701.8972610141077	855.9443342259102	-126.41576434971176	3627.1648935949293	752.3428182161284	-401.975047145124	3583.8547551197203	717.2360658595187	-249.96985602090322	3502.231323037298	683.7233773716273	-48.10119746678194	3659.7178468538928	576.6543217322237	202.27574133400563	3700.6888172159383	528.6373298908503	357.4327615015496	3543.3579248453207	618.428221161339	419.1557566519488	3503.0262000167013	682.436525440816	449.65448220402453	3506.720326712546	701.6022038718938	471.48572109777206	3446.5118683464434	634.4643330321973	-35.08396647175042	3549.41065825481	884.4548895333304	229.7491731849804	3483.4596642621686	893.2899030429068	362.6963707396287	3458.40610719677	712.9581533356389	405.4804550601629	3480.8161015983164	616.6245529039354	457.64870107876175	3520.0325866761405	625.1114761738755	463.84217888107304	3432.829221150388	633.5227017705646
